<svg xmlns="http://www.w3.org/2000/svg" viewBox="0 0 100 100"><defs><style>.cls-1{fill:#567ff0;}.cls-2{fill:#bdcbfa;}.cls-3{fill:#fbfdfd;}.cls-4{fill:#7899f3;}.cls-5{fill:#fafcfd;}</style></defs><g id="Laptop"><path class="cls-1" d="M100,49.63A50,50,0,1,1,50,0,50,50,0,0,1,100,49.63Z"/><path class="cls-2" d="M28.37,58.11s-.06,0-.07,0,0,0,0,0l.08.09Z"/><path class="cls-2" d="M50.17,13a27.09,27.09,0,0,1,2.95,4.53C57.61,24.73,62,32,66.49,39.23q3.12,5.07,6.22,10.14a2.31,2.31,0,0,1,.47,1.1l-12-5.26Q56,42.9,50.82,40.55c-.66-.3-.74,0-.74.53q0,11.36,0,22.71c-.2.67-.52.17-.74,0q-6.14-3.53-12.25-7.08L27.56,51.2c-.31-.18-.71-.28-.74-.74,1.88-.78,3.8-1.47,5.63-2.36,5.4-2.63,11-4.89,16.42-7.37a1.77,1.77,0,0,0,1.24-1.9c0-7.47,0-14.95,0-22.43C50.1,15.26,50.14,14.12,50.17,13Z"/><path class="cls-3" d="M50.17,13c0,1.14-.07,2.28-.07,3.42,0,7.48,0,15,0,22.43a1.77,1.77,0,0,1-1.24,1.9c-5.46,2.48-11,4.74-16.42,7.37-1.83.89-3.75,1.58-5.63,2.36a17.94,17.94,0,0,1,2.09-3.66q10.1-16.53,20.25-33c.2-.31.39-.63.62-.92S50.1,12.75,50.17,13Z"/><path class="cls-4" d="M50.12,63.79q0-11.35,0-22.71c0-.56.08-.83.74-.53Q56,42.91,61.2,45.21l12,5.26c-.28.91-1.24,1-1.88,1.35-3.13,1.92-6.36,3.69-9.54,5.53-3,1.71-5.89,3.48-8.87,5.14C52,63,51.25,63.79,50.12,63.79Z"/><path class="cls-5" d="M28.43,56.12c3.05,1.74,6.11,3.47,9.16,5.22q6.25,3.58,12.48,7.2,0,8.73,0,17.47c0,.36.08.77-.44.87q-5.07-7-10.13-14L28,56.94C28.11,56.65,27.84,56.17,28.43,56.12Z"/><path class="cls-2" d="M49.65,86.88c.52-.1.45-.51.44-.87q0-8.74,0-17.47l8.18-4.78,13.26-7.69c.46-.27.94-.52,1.41-.78.24.3,0,.47-.12.63q-8.13,11.2-16.28,22.42-3.1,4.27-6.19,8.58C50.06,87.29,49.85,87.53,49.65,86.88Z"/><path class="cls-2" d="M28.43,56.12c-.59.05-.32.53-.42.82a4,4,0,0,1-1.17-1.65h0A2.1,2.1,0,0,1,28.43,56.12Z"/></g></svg>