<svg xmlns="http://www.w3.org/2000/svg" viewBox="0 0 100 100"><defs><style>.cls-1{fill:#ba4369;}</style></defs><g id="Laptop"><path class="cls-1" d="M100,47.74v4.59a4.33,4.33,0,0,0-.08.5,47.31,47.31,0,0,1-2.35,12.59A49.72,49.72,0,0,1,73.7,94a47.53,47.53,0,0,1-18.26,5.67l-3.09.29H47.76a5.39,5.39,0,0,0-.56-.08,47.41,47.41,0,0,1-7.77-1A48.34,48.34,0,0,1,12,82.46C1.74,70.24-1.92,56.13.94,40.45A47.6,47.6,0,0,1,16.05,13.31C26.85,3.44,39.63-.91,54.23.16A46.36,46.36,0,0,1,69.12,3.78,49.87,49.87,0,0,1,94.68,27.54a48.14,48.14,0,0,1,5,17.16C99.82,45.71,99.9,46.73,100,47.74Zm-56.28,1.1-.63.22A21.15,21.15,0,0,0,30.35,60.45a19.33,19.33,0,0,0-1.88,8.19,2.88,2.88,0,0,0,2.26,3,5.91,5.91,0,0,0,1.26.12q17.78,0,35.56,0a3.6,3.6,0,0,0,3-1.4A1.88,1.88,0,0,0,71,69.19a23.83,23.83,0,0,0-.31-3.59A20.46,20.46,0,0,0,59.15,50.24c-1.07-.53-2.19-1-3.29-1.44a11.94,11.94,0,0,0,2.35-18.58,11.8,11.8,0,0,0-17.33.47A12,12,0,0,0,43.72,48.84Z"/></g></svg>