<svg xmlns="http://www.w3.org/2000/svg" xmlns:xlink="http://www.w3.org/1999/xlink" viewBox="0 0 273.79 45.41"><defs><style>.cls-1{fill:gray;}.cls-2{fill:url(#名称未設定グラデーション_2);}.cls-3{fill:url(#名称未設定グラデーション_2-2);}</style><linearGradient id="名称未設定グラデーション_2" x1="15.09" y1="45.41" x2="15.09" y2="2.51" gradientUnits="userSpaceOnUse"><stop offset="0" stop-color="#6090b5"/><stop offset="0.07" stop-color="#5a8cb2"/><stop offset="0.34" stop-color="#497ea9"/><stop offset="0.64" stop-color="#3f77a4"/><stop offset="1" stop-color="#3c74a2"/></linearGradient><linearGradient id="名称未設定グラデーション_2-2" x1="46.33" y1="45.41" x2="46.33" y2="0" xlink:href="#名称未設定グラデーション_2"/></defs><g id="Laptop"><path class="cls-1" d="M82.83,17.75h-.44V45H76.65V5.22h6.68L90,23.87h.33l7-18.65h6.4V45H98V17.75h-.44L92.6,31.82H87.74Z"/><path class="cls-1" d="M111.31,5.22h16.94v5.41h-11V21.94H127.7v5.41H117.27v12.2h11.26V45H111.31Z"/><path class="cls-1" d="M147.24,10.63V45h-6V10.63h-7.12V5.22h20.2v5.41Z"/><path class="cls-1" d="M174.17,35.74h-8.11L164.35,45H159v-4l8-35.71h6.23l8.06,35.71v4h-5.35Zm-7.06-5.35h6.07l-2.82-14.85h-.49Z"/><path class="cls-1" d="M198.56,45V5.22h15.35c2.42.88,4.3,2.43,4.3,6.62v6.35c0,3.31-1.16,5.19-4.36,6.29,3.2,1.05,4.36,2.93,4.36,6.29v7.56c0,4.2-1.88,5.74-4.3,6.63Zm6-22.52H211l1.21-1.21V11.13L211,9.91h-6.52Zm7.73,16.61V28.29L211,27.13h-6.52V40.27H211Z"/><path class="cls-1" d="M245.47,38.33c0,4.2-1.87,5.74-4.3,6.63h-11c-2.43-.89-4.3-2.43-4.3-6.63V11.84c0-4.19,1.87-5.74,4.3-6.62h11c2.43.88,4.3,2.43,4.3,6.62Zm-6-27-1.21-1.22H233l-1.21,1.22V38.83L233,40h5.3l1.21-1.21Z"/><path class="cls-1" d="M256.73,45h-5.24v-4l6.84-16.23L251.82,9.25v-4H257l5.35,15.23h.5l5.41-15.23h5.18v4L266.94,24.7l6.85,16.23v4h-5.25l-5.68-16.23h-.5Z"/><polygon class="cls-2" points="30.17 30.11 23.63 45.41 0 45.41 18.36 2.51 30.17 30.11"/><polygon class="cls-3" points="62.48 45.41 36.71 45.41 30.17 30.11 43.06 0 62.48 45.41"/></g></svg>